<svg width="720" height="720" viewBox="0 0 720 720" xmlns="http://www.w3.org/2000/svg"><rect width="720" height="720" fill="#002e7a"/><path d="M720,720C610.5,731.3333333333334,110.33333333333333,749.6666666666666,0,720C-110.33333333333333,690.3333333333334,38.5,583.6666666666666,58,542C77.5,500.3333333333333,96.83333333333333,476.3333333333333,117,470C137.16666666666666,463.6666666666667,159,511,179,504C199,497,217.33333333333334,449,237,428C256.6666666666667,407,276.8333333333333,343.3333333333333,297,378C317.1666666666667,412.6666666666667,337.8333333333333,602.8333333333334,358,636C378.1666666666667,669.1666666666666,398.1666666666667,564.3333333333334,418,577C437.8333333333333,589.6666666666666,457,735,477,712C497,689,517.6666666666666,449.3333333333333,538,439C558.3333333333334,428.6666666666667,579.1666666666666,614.5,599,650C618.8333333333334,685.5,636.8333333333334,640.3333333333334,657,652C677.1666666666666,663.6666666666666,829.5,708.6666666666666,720,720C610.5,731.3333333333334,110.33333333333333,749.6666666666666,0,720" fill="#00c7fc"/></svg>