<svg width="720" height="720" viewBox="0 0 720 720" xmlns="http://www.w3.org/2000/svg"><rect width="720" height="720" fill="#ffaa00"/><path d="M667,364.99999999999994C654.6234576374821,428.32076388572114,573.5394468475239,570.1288633051771,531.8727801808573,617.1320343559643C490.2061135141906,664.1352054067514,471.5008024228036,646.429974723776,417,647.019026304723C362.4991975771964,647.6080778856699,236.86958871028463,663.8361815590995,204.86796564403576,620.6663438416457C172.8663425777869,577.4965061241919,233.32359493584008,465.133063032935,224.99026160250673,388C216.6569282691734,310.866936967065,129.36634257778684,209.03463231070242,154.8679656440357,157.86796564403576C180.36958871028457,106.7012989773691,302.7893218813452,67.77675243373308,377.99999999999994,81C453.2106781186547,94.22324756626692,557.9653676892975,189.87411770830397,606.1320343559642,237.20745104163728C654.2987010226308,284.5407843749706,679.3765423625179,301.67923611427875,667,364.99999999999994C654.6234576374821,428.32076388572114,573.5394468475239,570.1288633051771,531.8727801808573,617.1320343559643" fill="#5a1c00"/></svg>