<svg width="720" height="720" viewBox="0 0 720 720" xmlns="http://www.w3.org/2000/svg"><rect width="720" height="720" fill="#df6688"/><path d="M 0,720 C 0,720 0,120 0,120 C 44.197435897435895,134.1153846153846 88.39487179487179,148.23076923076923 127,147 C 165.6051282051282,145.76923076923077 198.6179487179487,129.19230769230768 242,116 C 285.3820512820513,102.8076923076923 339.1333333333334,93.00000000000003 379,88 C 418.8666666666666,82.99999999999997 444.848717948718,82.80769230769229 480,94 C 515.151282051282,105.19230769230771 559.4717948717949,127.76923076923077 601,134 C 642.5282051282051,140.23076923076923 681.2641025641026,130.1153846153846 720,120 C 720,120 720,720 720,720 Z" fill="#3d1053" opacity="0.09999999999999999"/><path d="M 0,720 C 0,720 0,240 0,240 C 45.95128205128205,244.9871794871795 91.9025641025641,249.974358974359 127,259 C 162.0974358974359,268.025641025641 186.34102564102568,281.08974358974353 224,276 C 261.6589743589743,270.91025641025647 312.73333333333335,247.66666666666669 359,247 C 405.26666666666665,246.33333333333331 446.7256410256409,268.2435897435897 489,265 C 531.2743589743591,261.7564102564103 574.3641025641026,233.35897435897436 613,225 C 651.6358974358974,216.64102564102564 685.8179487179486,228.32051282051282 720,240 C 720,240 720,720 720,720 Z" fill="#3d1053" opacity="0.19999999999999998"/><path d="M 0,720 C 0,720 0,360 0,360 C 43.18205128205129,341.05641025641023 86.36410256410258,322.1128205128205 123,325 C 159.63589743589742,327.8871794871795 189.72564102564098,352.6051282051282 224,351 C 258.274358974359,349.3948717948718 296.73333333333335,321.46666666666664 340,328 C 383.26666666666665,334.53333333333336 431.3410256410257,375.5282051282052 472,385 C 512.6589743589743,394.4717948717948 545.902564102564,372.4205128205128 586,363 C 626.097435897436,353.5794871794872 673.0487179487179,356.7897435897436 720,360 C 720,360 720,720 720,720 Z" fill="#3d1053" opacity="0.3"/><path d="M 0,720 C 0,720 0,480 0,480 C 35.48461538461538,469.65641025641025 70.96923076923076,459.3128205128205 108,472 C 145.03076923076924,484.6871794871795 183.60769230769233,520.4051282051282 226,522 C 268.39230769230767,523.5948717948718 314.6,491.0666666666667 354,482 C 393.4,472.9333333333333 425.99230769230775,487.32820512820507 465,490 C 504.00769230769225,492.67179487179493 549.4307692307692,483.62051282051283 593,480 C 636.5692307692308,476.37948717948717 678.2846153846153,478.18974358974356 720,480 C 720,480 720,720 720,720 Z" fill="#3d1053" opacity="0.39999999999999997"/><path d="M 0,720 C 0,720 0,600 0,600 C 50.394871794871804,617.7333333333333 100.78974358974361,635.4666666666666 138,636 C 175.2102564102564,636.5333333333334 199.23589743589747,619.8666666666667 232,605 C 264.76410256410253,590.1333333333333 306.2666666666667,577.0666666666666 356,575 C 405.7333333333333,572.9333333333334 463.69743589743587,581.8666666666667 502,596 C 540.3025641025641,610.1333333333333 558.9435897435898,629.4666666666667 592,631 C 625.0564102564102,632.5333333333333 672.5282051282052,616.2666666666667 720,600 C 720,600 720,720 720,720 Z" fill="#3d1053" opacity="0.49999999999999994"/></svg>